<?xml version="1.0" encoding="UTF-8"?>
<svg viewBox="0 0 640 480" xmlns="http://www.w3.org/2000/svg">
 <path d="m312.3 310.88c0.32068 10.837 2.5916 32.433 2.5916 32.433 0.91614 11.465 1.8804 22.929 3.1098 34.369 0.74695 6.9501 2.5916 20.815 2.5916 20.815 0.40704 3.269 0.77274 6.6227 2.0732 9.6814 0.6015 1.4147 2.5915 3.8726 2.5915 3.8726 1.9365 2.8937 1.2096 6.754 1.2958 10.165 0.085846 3.3962-0.77747 10.166-0.77747 10.166-0.14062 1.8386-1.7305 3.3272-2.3324 5.0827-1.4828 4.3254-2.9142 8.7738-3.1098 13.312-0.12976 3.0097 1.2958 8.9552 1.2958 8.9552 0.20465 1.4145 1.9563 2.2102 3.1098 3.1464 1.031 0.83679 2.0951 1.7181 3.369 2.1783 1.2192 0.4404 2.5859 0.59936 3.8873 0.48407 0.81589-0.072235 1.6602-0.28836 2.3324-0.72614 0.4537-0.29544 1.0366-1.2101 1.0366-1.2101 0.64981-0.75864 1.2655 1.5662 2.0732 2.1782 1.0817 0.8197 3.6282 1.9363 3.6282 1.9363 1.3829 0.73813 3.0725 0.92838 4.6648 0.96817 1.0505 0.026184 3.1098-0.48407 3.1098-0.48407 0.6203-0.096527 1.2204-0.29013 1.814-0.4841 1.0601-0.34634 3.1099-1.2102 3.1099-1.2102 1.1854-0.46127 1.5797 1.9237 2.5915 2.6624 1.0049 0.73361 3.369 1.6942 3.369 1.6942 1.2287 0.61798 2.7551-0.69006 3.8873-1.4522 1.1934-0.80334 2.8507-3.1464 2.8507-3.1464 1.3961-1.541-0.14828-4.0685 0.25912-6.0509 0.29355-1.4283 1.6327-2.6619 1.5549-4.1146 0 0 0.25558-3.2983-0.25919-4.8407-0.6348-1.9024-2.2712-3.374-3.369-5.0827 0 0-3.402-4.6967-4.6648-7.261-1.3698-2.7814-2.3256-5.7406-3.1098-8.7133-0.9003-3.4128-1.3196-6.9231-1.8141-10.408-0.89011-6.271-2.0732-18.879-2.0732-18.879-0.79565-7.2449-1.4466-14.508-1.8141-21.783-0.48856-9.672-0.51831-29.044-0.51831-29.044-0.070496-3.9535 0.079742-7.9092 0.25919-11.86 0.11386-2.504 0.13974-5.0219 0.51834-7.5031 0.33704-2.2091 1.5549-6.5349 1.5549-6.5349 0.47995-2.0172 2.6892-3.2858 4.1464-4.8407 1.8108-1.9322 5.7014-5.5668 5.7014-5.5668 1.9496-1.9035 4.1653-3.576 6.4788-5.0827 1.7138-1.1161 5.4422-2.9044 5.4422-2.9044 1.2024-0.64166 2.7663-0.13513 4.1464-0.24206 2.5099-0.19437 7.5155-0.72604 7.5155-0.72604 2.2407-0.21652 5.0418-0.90039 6.738 0.48407 0.93127 0.76013 0.77744 3.3885 0.77744 3.3885l1.0366 10.65c0.37744 3.8775 0.87241 7.7443 1.2958 11.618 0.44083 4.033 1.2958 12.102 1.2958 12.102 0.5022 4.6899 1.3662 9.3433 1.8141 14.038 0.39932 4.1856 0.77744 12.586 0.77744 12.586 0.14935 2.4177 0.21597 4.8396 0.25919 7.261 0.027283 1.5327 0 4.5987 0 4.5987 0 1.2524 0.54697 2.4644 1.0366 3.6305 0.60666 1.4447 2.3324 4.1146 2.3324 4.1146 1.1346 2.0016 0.2323 4.528 0.51834 6.777 0.30991 2.4366-0.033905 5.1447 1.2958 7.2611 1.1196 1.7822 5.183 3.8725 5.183 3.8725 1.1307 0.84485 0.84375 2.5877 1.2958 3.8726 0.82724 2.3512 2.5915 7.019 2.5915 7.019 0.75827 2.0536 2.2704 3.803 3.6282 5.5668 1.2526 1.6271 4.1465 4.5986 4.1465 4.5986 0.97174 1.0778 2.6549 1.4825 4.1464 1.6943 1.5468 0.2196 3.6281-0.24206 4.6648-0.48404 1.0366-0.24206 3.4945-0.88052 4.4056-2.1783 0.61758-0.87973-0.75357-2.686 0.25916-3.1464 0.84015-0.38193 2.3324 1.4522 2.3324 1.4522 2.6164 1.6289 5.7191 2.6131 8.8112 3.1464 1.9538 0.33698 4.0923 0.63168 5.9605 0 1.2688-0.42902 2.3925-1.353 3.1098-2.4203 0.37872-0.56351 0.54562-1.2715 0.51831-1.9363-0.041931-1.0198-1.0366-2.9044-1.0366-2.9044-0.21335-0.59781 1.1584-0.70038 1.5549-1.2102 0.54688-0.703 1.0366-2.4204 1.0366-2.4204 0.3529-0.82394 0.30051-1.8204 0-2.6624-0.40976-1.148-2.3324-2.9044-2.3324-2.9044-2.5749-3.2064-6.4616-5.2828-9.8478-7.7451-2.6861-1.9532-8.2929-5.5668-8.2929-5.5668-1.8874-1.2669-3.8116-2.6039-5.1831-4.3566-1.7337-2.2156-3.6281-7.503-3.6281-7.503-1.3738-2.8411-1.5412-6.0904-1.8141-9.1974-0.76273-8.6855 0.51828-26.14 0.51828-26.14 0.10574-5.3336 0.26736-10.688 1.0366-15.974 0.55908-3.8414 1.8702-7.5578 2.5916-11.376 0 0 1.0124-5.4902 1.5549-8.2292 0.49622-2.5049 1.185-4.9791 1.555-7.503 0.43488-2.9672 0.11813-6.0244 0.77747-8.9553 0.48862-2.1724 2.3323-6.2929 2.3323-6.2929 1.1777-3.1774 3.3645-5.9672 5.4422-8.7132 1.6979-2.2441 5.7014-6.2929 5.7014-6.2929 2.3068-2.546 4.2581-5.4205 5.7014-8.4712 1.3044-2.7572 2.5915-8.7132 2.5915-8.7132 1.3649-4.589-0.43188-9.518-0.51828-14.28-0.13028-7.1794 0-21.541 0-21.541 0-5.2391 2.318-10.275 2.8506-15.49 0.41028-4.0164 0.31387-8.0673 0.25916-12.102 0 0-0.7287-12.762-0.25916-19.121 0.1984-2.6864 0.63257-5.3666 1.2958-7.9871 0 0 2.3434-8.854 3.369-13.312 0.57297-2.4905 1.5549-7.503 1.5549-7.503s0.33655-2.9054 0.51828-4.3567c0.57626-4.6018 1.3138-9.1863 1.8141-13.796 0.43695-4.0262 0.64276-8.0717 1.0366-12.102 0.30783-3.1499-0.008057-6.4306 1.0366-9.4394 0.58484-1.6849 1.4107-3.4459 2.8507-4.5986 0 0 3.4768-3.0878 5.4422-4.3566 3.4027-2.1967 7.2569-3.7102 10.884-5.5668 2.6784-1.3708 5.3964-2.6762 8.0338-4.1146 2.5461-1.3887 5.2646-2.5779 7.5154-4.3566 0 0 4.896-3.1821 6.738-5.3247 1.1612-1.3508 1.9403-2.9768 2.5916-4.5987l3.1098-7.7451c0.57233-1.4254 2.0323-2.4428 2.5915-3.8726 0.41919-1.0717 0.61841-2.2514 0.51837-3.3885-0.14093-1.6021-1.4799-2.9926-1.555-4.5986-0.10413-2.2294 1.555-6.535 1.555-6.535 0.41486-1.7433-0.90027-3.5139-1.8141-5.0827-0.26434-0.45378-1.0366-1.2102-1.0366-1.2102-1.457-1.701 0.50037-4.4073 0-6.5349-0.26532-1.1283-1.5549-3.1464-1.5549-3.1464-0.3584-0.7252-1.0377-1.3594-1.8141-1.6943-1.967-0.84826-6.4788-0.48405-6.4788-0.48405-4.0618-0.30346-8.1249 0.59661-12.18 0.96817-3.114 0.28527-9.3295 0.96811-9.3295 0.96811-3.366 0.3493-6.8039 0.26984-10.107 0.96817-2.505 0.52956-4.7256 2.011-7.2563 2.4203-0.5958 0.096405-1.3865 0.39934-1.8141 0-0.9162-0.85575 0-3.6305 0-3.6305s-0.16959-2.6883-0.77744-3.8726c-1.0327-2.0123-4.6648-5.0827-4.6648-5.0827-1.316-1.434-3.6978-1.6802-5.7014-1.9363-2.2318-0.28527-6.738 0.48406-6.738 0.48406-1.292 0.092857-2.6223 0.26209-3.8873 0-4.188-0.8677-11.662-5.0827-11.662-5.0827-5.4218-2.363-11.899-1.3898-17.882-1.4522-8.0499-0.083925-16.176 0.13049-24.101 1.4522-3.2826 0.54749-9.5887 2.6624-9.5887 2.6624-1.4649 0.40676-2.2583 1.9612-3.1098 3.1464-0.79678 1.1089-0.69693 2.7969-1.8141 3.6305-1.5885 1.1854-4.0084 0.67896-5.9605 1.2102-1.6793 0.457-4.9239 1.6943-4.9239 1.6943-2.1215 0.72992-3.0409 3.1294-4.6648 4.5986-2.2414 2.0279-6.9972 5.8088-6.9972 5.8088-2.2037 1.8294-3.201 5.18-4.6647 7.019s-3.0749 2.4503-3.8873 4.1146c-1.0846 2.2218 0.12155 5.072-1.0366 7.261-0.48706 0.92063-1.8221 1.2688-2.3323 2.1784-0.89648 1.598-1.0366 5.3247-1.0366 5.3247-0.5563 2.8576-0.64563 5.8721 0 8.7132 0.35321 1.5546 2.0732 4.3566 2.0732 4.3566 0.67487 1.4181 1.4818 2.7815 2.3324 4.1146 0.47836 0.74963 1.4011 1.3175 1.5549 2.1783 0.27933 1.5635-1.2958 4.5987-1.2958 4.5987-1.68 5.9624-0.89606 12.328-2.0732 18.395-0.85931 4.4285-3.6281 13.07-3.6281 13.07-0.85907 3.0944-4.6179 4.8332-7.5155 6.535-1.8061 1.0607-5.9605 2.1783-5.9605 2.1783-2.2653 0.82791-5.9605 0.24206-7.2563 0.72612s-6.096-0.16425-9.0703-0.72612c-3.2935-0.62209-6.4385-1.8126-9.5887-2.9044-2.7224-0.94356-8.0338-3.1464-8.0338-3.1464-4.0838-1.5995-8.1203-3.443-12.439-4.3566-3.8901-0.82298-7.9324-0.95766-11.921-0.96811l-46.259-0.121c-8.2592-0.021538-16.541 1.1926-24.749 0.84708-1.3176-0.055428-5.4422-1.9363-8.8112-3.1464-3.369-1.2102-5.1448-2.8081-7.7746-4.1146l-12.18-6.0508s-6.8681-2.3801-10.366-3.3885c-3.5039-1.0101-7.2563-2.4203-10.625-2.6623-3.369-0.24206-15.918-1.2102-11.921-1.2102 1.3616 0-4.8649-0.20384-7.5154 0.242-1.9902 0.33478-5.7014 1.9363-5.7014 1.9363-1.551 0.52674-2.9685 1.7336-3.6282 3.1464-0.58699 1.2572-0.31086 2.7742 0 4.1146 0.221 0.95274 0.71722 1.851 1.2958 2.6624 0.91476 1.2829 1.9814 2.554 3.369 3.3885 2.5264 1.5194 5.722 1.7188 8.552 2.6623 3.6565 1.219 7.0747 4.0182 10.884 3.8726 3.8928-0.14874 5.4732 0.58965 8.2929 2.9044 1.9442 1.5961 6.2197 4.3566 6.2197 4.3566 2.5486 1.7852 4.9957 3.7125 7.2563 5.8088 1.8684 1.7326 5.1831 5.5668 5.1831 5.5668 2.5963 2.7886 6.1267 4.7456 9.5887 6.535 3.2562 1.6829 10.366 3.8725 10.366 3.8725 2.2967 0.85805 4.4076 2.1296 6.738 2.9045 1.4705 0.48898 4.5352 1.0891 4.5352 1.0891 6.1142 1.4684-1.0906 11.308-2.462 17.063-1.157 4.8559-2.3324 14.764-2.3324 14.764-0.7717 4.885-1.2865 9.8262-1.2958 14.764-0.006927 4.1272 0.3697 8.2638 1.0366 12.344 0.46806 2.8634 1.9177 5.5783 2.0732 8.4712 0.069824 1.2992-0.51828 3.8725-0.51828 3.8725-0.41388 3.0923-3.369 7.7451-3.6282 8.7133-0.25914 0.96811-3.3315 5.9418-3.6281 9.1973 0 0-0.86368 7.5735-1.0366 11.376-0.35193 7.7381 0 23.235 0 23.235 0 2.593-0.51831 6.777-0.77744 7.7452-0.25919 0.96811-1.8141 7.7451-2.0732 8.7132-0.25916 0.96811-2.0732 9.1973-2.3324 10.65-0.25919 1.4522-3.1412 7.5726-4.6648 11.376-1.6759 4.1833-2.9359 8.5234-4.9239 12.586-1.1092 2.2664-3.8873 6.535-3.8873 6.535-1.5009 2.5232-2.7322 5.1785-4.1464 7.7451-0.76036 1.3799-2.056 2.5844-2.3324 4.1146-0.189 1.0464 0.5183 3.1464 0.5183 3.1464 0.22678 1.3765-0.19667 3.0601 0.77748 4.1146 0.35687 0.38632 1.5549 0.48404 1.5549 0.48404 0.66072 0.20569 1.2117-1.2946 1.8141-0.96811 0.44827 0.24298-0.077057 0.97351 0 1.4522 0.17471 1.0852 0.54401 2.1502 1.0366 3.1464 0.4722 0.95502 0.84119 2.1324 1.8141 2.6624 0 0 1.9514 1.4017 3.1099 1.6942 0.91728 0.23163 2.4257 0.79382 2.8507 0 0 0 0.26976-1.8481 1.0366-1.9362 0.79047-0.09082 0.80646 1.44 1.5549 1.6942 0 0 1.9074 0.90134 2.8507 0.96811 0.94331 0.066864 2.3324 0.30237 2.5915-0.48404 0 0 0.021088-2.5947 1.0366-3.1464 0.68846-0.37399 1.536 0.48407 2.3324 0.48407 0 0 1.0613 0.14774 1.555 0 0.70766-0.21179 1.474-0.59308 1.814-1.2102 0.55339-1.0043-1.0288-2.7946 0-3.3885 0.65724-0.37936 2.0732 0.96811 2.0732 0.96811 1.0509 0.49075 2.5286-0.20126 3.369-0.96811 1.3677-1.248 1.449-3.3296 1.814-5.0827 0.2644-1.2696 0.25916-3.8726 0.25916-3.8726s-0.47134-12.75-0.25916-19.121c0.10785-3.2346 0.77748-9.6814 0.77748-9.6814 0.58302-7.2603 2.8492-14.352 5.1831-21.299 1.1718-3.4878 4.4056-10.166 4.4056-10.166 1.4874-3.432 0.75644-7.4943 2.3324-10.892 1.1816-2.5473 5.1831-6.777 5.1831-6.777 2.6041-3.405 4.8528-7.0422 7.5154-10.408 1.7158-2.1686 5.4422-6.2929 5.4422-6.2929 1.2389-1.4326 2.0606-3.1535 2.8507-4.8407 0.76625-1.6362 1.0657-3.4393 1.8141-5.0827 0.80153-1.76 1.3119-3.8207 2.8507-5.0827 1.3143-1.078 4.9239-1.6942 4.9239-1.6942 2.373-0.81648 5.151 0.13048 7.5155 0.96811 2.0385 0.72217 5.4422 3.3885 5.4422 3.3885 1.7796 1.108 3.8255 2.434 4.4056 4.3566 0.45496 1.5078-0.42914 3.1385-1.0366 4.5986-0.7995 1.9217-3.369 5.3248-3.369 5.3248-1.2984 2.0522-2.58 4.2031-3.1098 6.5349-0.32278 1.4206 0 4.3566 0 4.3566 0 3.5443 1.177 7.0314 2.3324 10.407 0.91866 2.6842 2.5957 5.0973 3.6281 7.7452 1.0476 2.6866 2.5916 8.2292 2.5916 8.2292 0.82874 2.6316 0 7.019 0 8.2292s-0.1431 6.5098 0.51828 9.6814c0.40213 1.9284 0.5444 4.2173 2.0732 5.5668 0.91412 0.80688 3.6281 0.96817 3.6281 0.96817 1.0139 0.27051 1.5399-1.6219 2.5916-1.6943 0.77057-0.052948 2.0732 0.96817 2.0732 0.96817 1.3158 0.61441 1.9877 2.1898 3.369 2.6624 1.8656 0.63818 3.9736 0 5.9605 0h2.5915c1.0074 0 2.0952-0.63351 2.5915-1.4522 0.21283-0.35107 0-1.2102 0-1.2102 0-1.0974 2.0732 0.96811 2.8507 1.9363 0.77747 0.96811 3.967 2.3244 5.7014 1.4522l3.369-1.6942c0.91904-0.46219 0.33462-2.2822 1.2958-2.6624 1.1826-0.46765 2.4366 1.6574 3.6282 1.2102 0.53772-0.20181 0.55572-0.95224 0.7775-1.4522 0.41812-0.94281 1.0366-2.9044 1.0366-2.9044 0.37152-1.041-0.64536-2.1117-1.0366-3.1464-0.61969-1.6387-2.0732-4.8407-2.0732-4.8407-0.8757-2.0446-5.1831-3.1464-6.2197-3.1464s-4.9173-2.6273-7.2563-4.1146c-2.2422-1.4258-4.7278-2.6638-6.4788-4.5987-1.322-1.4607-2.8507-5.0827-2.8507-5.0827-0.95276-1.6988-1.3691-3.6569-1.5549-5.5668-0.21167-2.1753 0.51831-6.5349 0.51831-6.5349 0.15851-1.9985 2.5791-3.23 4.1465-4.5987 1.1737-1.0249 3.8873-2.6623 3.8873-2.6623 0.83594-0.57251 2.1227-0.29544 3.1099 0 1.4153 0.42358 3.6281 2.4204 3.6281 2.4204 2.9532 1.97 5.9386 3.9411 8.552 6.2929 1.6329 1.4693 2.7116 3.4329 4.4056 4.8407 0.93072 0.77344 1.8932 1.8812 3.1098 1.9363 5.6591 0.25577 3.7429 17.52 2.8507 26.624z" fill="#3f7f00" stroke="#000" stroke-width="1.26"/>
</svg>
